<mxfile host="app.diagrams.net" modified="2021-08-15T20:55:28.161Z" agent="5.0 (X11; Linux x86_64) AppleWebKit/537.36 (KHTML, like Gecko) Chrome/92.0.4515.131 Safari/537.36" etag="aV0d3go2S3buknr3TPPA" version="14.9.6" type="github">
  <diagram id="R2lEEEUBdFMjLlhIrx00" name="Page-1">
    <mxGraphModel dx="1102" dy="596" grid="1" gridSize="10" guides="1" tooltips="1" connect="1" arrows="1" fold="1" page="1" pageScale="1" pageWidth="850" pageHeight="1100" math="0" shadow="0" extFonts="Permanent Marker^https://fonts.googleapis.com/css?family=Permanent+Marker">
      <root>
        <mxCell id="0" />
        <mxCell id="1" parent="0" />
        <mxCell id="Q_LdiHJ3nkgfOyBbxPlQ-1" value="" style="shape=table;startSize=30;container=1;collapsible=1;childLayout=tableLayout;fixedRows=1;rowLines=0;fontStyle=1;align=center;resizeLast=1;strokeWidth=2;" vertex="1" parent="1">
          <mxGeometry x="80" y="80" width="140" height="105" as="geometry" />
        </mxCell>
        <mxCell id="Q_LdiHJ3nkgfOyBbxPlQ-2" value="" style="shape=partialRectangle;collapsible=0;dropTarget=0;pointerEvents=0;fillColor=none;points=[[0,0.5],[1,0.5]];portConstraint=eastwest;top=0;left=0;right=0;bottom=1;" vertex="1" parent="Q_LdiHJ3nkgfOyBbxPlQ-1">
          <mxGeometry y="30" width="140" height="30" as="geometry" />
        </mxCell>
        <mxCell id="Q_LdiHJ3nkgfOyBbxPlQ-3" value="" style="shape=partialRectangle;overflow=hidden;connectable=0;fillColor=none;top=0;left=0;bottom=0;right=0;fontStyle=1;" vertex="1" parent="Q_LdiHJ3nkgfOyBbxPlQ-2">
          <mxGeometry width="30" height="30" as="geometry" />
        </mxCell>
        <mxCell id="Q_LdiHJ3nkgfOyBbxPlQ-4" value="" style="shape=partialRectangle;overflow=hidden;connectable=0;fillColor=none;top=0;left=0;bottom=0;right=0;align=left;spacingLeft=6;fontStyle=5;" vertex="1" parent="Q_LdiHJ3nkgfOyBbxPlQ-2">
          <mxGeometry x="30" width="110" height="30" as="geometry" />
        </mxCell>
        <mxCell id="Q_LdiHJ3nkgfOyBbxPlQ-5" value="" style="shape=partialRectangle;collapsible=0;dropTarget=0;pointerEvents=0;fillColor=none;points=[[0,0.5],[1,0.5]];portConstraint=eastwest;top=0;left=0;right=0;bottom=0;" vertex="1" parent="Q_LdiHJ3nkgfOyBbxPlQ-1">
          <mxGeometry y="60" width="140" height="30" as="geometry" />
        </mxCell>
        <mxCell id="Q_LdiHJ3nkgfOyBbxPlQ-6" value="" style="shape=partialRectangle;overflow=hidden;connectable=0;fillColor=none;top=0;left=0;bottom=0;right=0;" vertex="1" parent="Q_LdiHJ3nkgfOyBbxPlQ-5">
          <mxGeometry width="30" height="30" as="geometry" />
        </mxCell>
        <mxCell id="Q_LdiHJ3nkgfOyBbxPlQ-7" value="" style="shape=partialRectangle;overflow=hidden;connectable=0;fillColor=none;top=0;left=0;bottom=0;right=0;align=left;spacingLeft=6;" vertex="1" parent="Q_LdiHJ3nkgfOyBbxPlQ-5">
          <mxGeometry x="30" width="110" height="30" as="geometry" />
        </mxCell>
        <mxCell id="Q_LdiHJ3nkgfOyBbxPlQ-8" value="NOTAÇÃO IE" style="text;html=1;strokeColor=none;fillColor=none;align=left;verticalAlign=middle;whiteSpace=wrap;rounded=0;fontSize=24;" vertex="1" parent="1">
          <mxGeometry x="10" y="20" width="310" height="30" as="geometry" />
        </mxCell>
        <mxCell id="Q_LdiHJ3nkgfOyBbxPlQ-9" value="&lt;font style=&quot;font-size: 14px;&quot;&gt;ENTIDADE&lt;/font&gt;" style="text;html=1;strokeColor=none;fillColor=none;align=left;verticalAlign=middle;whiteSpace=wrap;rounded=0;fontSize=14;fontStyle=1" vertex="1" parent="1">
          <mxGeometry x="230" y="110" width="100" height="20" as="geometry" />
        </mxCell>
        <mxCell id="Q_LdiHJ3nkgfOyBbxPlQ-10" value="" style="shape=table;startSize=30;container=1;collapsible=1;childLayout=tableLayout;fixedRows=1;rowLines=0;fontStyle=1;align=center;resizeLast=1;strokeWidth=2;rounded=1;" vertex="1" parent="1">
          <mxGeometry x="80" y="220" width="140" height="105" as="geometry" />
        </mxCell>
        <mxCell id="Q_LdiHJ3nkgfOyBbxPlQ-11" value="" style="shape=partialRectangle;collapsible=0;dropTarget=0;pointerEvents=0;fillColor=none;points=[[0,0.5],[1,0.5]];portConstraint=eastwest;top=0;left=0;right=0;bottom=1;" vertex="1" parent="Q_LdiHJ3nkgfOyBbxPlQ-10">
          <mxGeometry y="30" width="140" height="30" as="geometry" />
        </mxCell>
        <mxCell id="Q_LdiHJ3nkgfOyBbxPlQ-12" value="" style="shape=partialRectangle;overflow=hidden;connectable=0;fillColor=none;top=0;left=0;bottom=0;right=0;fontStyle=1;" vertex="1" parent="Q_LdiHJ3nkgfOyBbxPlQ-11">
          <mxGeometry width="30" height="30" as="geometry" />
        </mxCell>
        <mxCell id="Q_LdiHJ3nkgfOyBbxPlQ-13" value="" style="shape=partialRectangle;overflow=hidden;connectable=0;fillColor=none;top=0;left=0;bottom=0;right=0;align=left;spacingLeft=6;fontStyle=5;" vertex="1" parent="Q_LdiHJ3nkgfOyBbxPlQ-11">
          <mxGeometry x="30" width="110" height="30" as="geometry" />
        </mxCell>
        <mxCell id="Q_LdiHJ3nkgfOyBbxPlQ-14" value="" style="shape=partialRectangle;collapsible=0;dropTarget=0;pointerEvents=0;fillColor=none;points=[[0,0.5],[1,0.5]];portConstraint=eastwest;top=0;left=0;right=0;bottom=0;" vertex="1" parent="Q_LdiHJ3nkgfOyBbxPlQ-10">
          <mxGeometry y="60" width="140" height="30" as="geometry" />
        </mxCell>
        <mxCell id="Q_LdiHJ3nkgfOyBbxPlQ-15" value="" style="shape=partialRectangle;overflow=hidden;connectable=0;fillColor=none;top=0;left=0;bottom=0;right=0;" vertex="1" parent="Q_LdiHJ3nkgfOyBbxPlQ-14">
          <mxGeometry width="30" height="30" as="geometry" />
        </mxCell>
        <mxCell id="Q_LdiHJ3nkgfOyBbxPlQ-16" value="" style="shape=partialRectangle;overflow=hidden;connectable=0;fillColor=none;top=0;left=0;bottom=0;right=0;align=left;spacingLeft=6;" vertex="1" parent="Q_LdiHJ3nkgfOyBbxPlQ-14">
          <mxGeometry x="30" width="110" height="30" as="geometry" />
        </mxCell>
        <mxCell id="Q_LdiHJ3nkgfOyBbxPlQ-17" value="&lt;font style=&quot;font-size: 14px&quot;&gt;ENTIDADE FRACA&lt;/font&gt;" style="text;html=1;strokeColor=none;fillColor=none;align=left;verticalAlign=middle;whiteSpace=wrap;rounded=0;fontSize=14;fontStyle=1" vertex="1" parent="1">
          <mxGeometry x="230" y="250" width="140" height="20" as="geometry" />
        </mxCell>
        <mxCell id="Q_LdiHJ3nkgfOyBbxPlQ-18" value="" style="shape=table;startSize=30;container=1;collapsible=1;childLayout=tableLayout;fixedRows=1;rowLines=0;fontStyle=1;align=center;resizeLast=1;strokeWidth=2;" vertex="1" parent="1">
          <mxGeometry x="445" y="80" width="140" height="105" as="geometry" />
        </mxCell>
        <mxCell id="Q_LdiHJ3nkgfOyBbxPlQ-19" value="" style="shape=partialRectangle;collapsible=0;dropTarget=0;pointerEvents=0;fillColor=none;points=[[0,0.5],[1,0.5]];portConstraint=eastwest;top=0;left=0;right=0;bottom=1;" vertex="1" parent="Q_LdiHJ3nkgfOyBbxPlQ-18">
          <mxGeometry y="30" width="140" height="30" as="geometry" />
        </mxCell>
        <mxCell id="Q_LdiHJ3nkgfOyBbxPlQ-20" value="PK" style="shape=partialRectangle;overflow=hidden;connectable=0;fillColor=none;top=0;left=0;bottom=0;right=0;fontStyle=1;" vertex="1" parent="Q_LdiHJ3nkgfOyBbxPlQ-19">
          <mxGeometry width="30" height="30" as="geometry" />
        </mxCell>
        <mxCell id="Q_LdiHJ3nkgfOyBbxPlQ-21" value="XXXXXXXXXXXX" style="shape=partialRectangle;overflow=hidden;connectable=0;fillColor=none;top=0;left=0;bottom=0;right=0;align=left;spacingLeft=6;fontStyle=5;" vertex="1" parent="Q_LdiHJ3nkgfOyBbxPlQ-19">
          <mxGeometry x="30" width="110" height="30" as="geometry" />
        </mxCell>
        <mxCell id="Q_LdiHJ3nkgfOyBbxPlQ-22" value="" style="shape=partialRectangle;collapsible=0;dropTarget=0;pointerEvents=0;fillColor=none;points=[[0,0.5],[1,0.5]];portConstraint=eastwest;top=0;left=0;right=0;bottom=0;" vertex="1" parent="Q_LdiHJ3nkgfOyBbxPlQ-18">
          <mxGeometry y="60" width="140" height="30" as="geometry" />
        </mxCell>
        <mxCell id="Q_LdiHJ3nkgfOyBbxPlQ-23" value="" style="shape=partialRectangle;overflow=hidden;connectable=0;fillColor=none;top=0;left=0;bottom=0;right=0;" vertex="1" parent="Q_LdiHJ3nkgfOyBbxPlQ-22">
          <mxGeometry width="30" height="30" as="geometry" />
        </mxCell>
        <mxCell id="Q_LdiHJ3nkgfOyBbxPlQ-24" value="" style="shape=partialRectangle;overflow=hidden;connectable=0;fillColor=none;top=0;left=0;bottom=0;right=0;align=left;spacingLeft=6;" vertex="1" parent="Q_LdiHJ3nkgfOyBbxPlQ-22">
          <mxGeometry x="30" width="110" height="30" as="geometry" />
        </mxCell>
        <mxCell id="Q_LdiHJ3nkgfOyBbxPlQ-25" value="&lt;font style=&quot;font-size: 14px&quot;&gt;CHAVE PRIMÁRIA&lt;/font&gt;" style="text;html=1;strokeColor=none;fillColor=none;align=left;verticalAlign=middle;whiteSpace=wrap;rounded=0;fontSize=14;fontStyle=1" vertex="1" parent="1">
          <mxGeometry x="595" y="120" width="140" height="20" as="geometry" />
        </mxCell>
        <mxCell id="Q_LdiHJ3nkgfOyBbxPlQ-26" value="" style="shape=table;startSize=30;container=1;collapsible=1;childLayout=tableLayout;fixedRows=1;rowLines=0;fontStyle=1;align=center;resizeLast=1;strokeWidth=2;" vertex="1" parent="1">
          <mxGeometry x="445" y="220" width="140" height="105" as="geometry" />
        </mxCell>
        <mxCell id="Q_LdiHJ3nkgfOyBbxPlQ-27" value="" style="shape=partialRectangle;collapsible=0;dropTarget=0;pointerEvents=0;fillColor=none;points=[[0,0.5],[1,0.5]];portConstraint=eastwest;top=0;left=0;right=0;bottom=1;" vertex="1" parent="Q_LdiHJ3nkgfOyBbxPlQ-26">
          <mxGeometry y="30" width="140" height="30" as="geometry" />
        </mxCell>
        <mxCell id="Q_LdiHJ3nkgfOyBbxPlQ-28" value="" style="shape=partialRectangle;overflow=hidden;connectable=0;fillColor=none;top=0;left=0;bottom=0;right=0;fontStyle=1;" vertex="1" parent="Q_LdiHJ3nkgfOyBbxPlQ-27">
          <mxGeometry width="30" height="30" as="geometry" />
        </mxCell>
        <mxCell id="Q_LdiHJ3nkgfOyBbxPlQ-29" value="" style="shape=partialRectangle;overflow=hidden;connectable=0;fillColor=none;top=0;left=0;bottom=0;right=0;align=left;spacingLeft=6;fontStyle=5;" vertex="1" parent="Q_LdiHJ3nkgfOyBbxPlQ-27">
          <mxGeometry x="30" width="110" height="30" as="geometry" />
        </mxCell>
        <mxCell id="Q_LdiHJ3nkgfOyBbxPlQ-30" value="" style="shape=partialRectangle;collapsible=0;dropTarget=0;pointerEvents=0;fillColor=none;points=[[0,0.5],[1,0.5]];portConstraint=eastwest;top=0;left=0;right=0;bottom=0;" vertex="1" parent="Q_LdiHJ3nkgfOyBbxPlQ-26">
          <mxGeometry y="60" width="140" height="30" as="geometry" />
        </mxCell>
        <mxCell id="Q_LdiHJ3nkgfOyBbxPlQ-31" value="FK" style="shape=partialRectangle;overflow=hidden;connectable=0;fillColor=none;top=0;left=0;bottom=0;right=0;" vertex="1" parent="Q_LdiHJ3nkgfOyBbxPlQ-30">
          <mxGeometry width="30" height="30" as="geometry" />
        </mxCell>
        <mxCell id="Q_LdiHJ3nkgfOyBbxPlQ-32" value="XXXXXXXXXXXX" style="shape=partialRectangle;overflow=hidden;connectable=0;fillColor=none;top=0;left=0;bottom=0;right=0;align=left;spacingLeft=6;" vertex="1" parent="Q_LdiHJ3nkgfOyBbxPlQ-30">
          <mxGeometry x="30" width="110" height="30" as="geometry" />
        </mxCell>
        <mxCell id="Q_LdiHJ3nkgfOyBbxPlQ-33" value="&lt;font style=&quot;font-size: 14px&quot;&gt;CHAVE ESTRANGEIRA&lt;/font&gt;" style="text;html=1;strokeColor=none;fillColor=none;align=left;verticalAlign=middle;whiteSpace=wrap;rounded=0;fontSize=14;fontStyle=1" vertex="1" parent="1">
          <mxGeometry x="595" y="262.5" width="170" height="20" as="geometry" />
        </mxCell>
        <mxCell id="Q_LdiHJ3nkgfOyBbxPlQ-34" value="" style="shape=table;startSize=30;container=1;collapsible=1;childLayout=tableLayout;fixedRows=1;rowLines=0;fontStyle=1;align=center;resizeLast=1;strokeWidth=2;" vertex="1" parent="1">
          <mxGeometry x="445" y="360" width="140" height="105" as="geometry" />
        </mxCell>
        <mxCell id="Q_LdiHJ3nkgfOyBbxPlQ-35" value="" style="shape=partialRectangle;collapsible=0;dropTarget=0;pointerEvents=0;fillColor=none;points=[[0,0.5],[1,0.5]];portConstraint=eastwest;top=0;left=0;right=0;bottom=1;" vertex="1" parent="Q_LdiHJ3nkgfOyBbxPlQ-34">
          <mxGeometry y="30" width="140" height="30" as="geometry" />
        </mxCell>
        <mxCell id="Q_LdiHJ3nkgfOyBbxPlQ-36" value="" style="shape=partialRectangle;overflow=hidden;connectable=0;fillColor=none;top=0;left=0;bottom=0;right=0;fontStyle=1;" vertex="1" parent="Q_LdiHJ3nkgfOyBbxPlQ-35">
          <mxGeometry width="30" height="30" as="geometry" />
        </mxCell>
        <mxCell id="Q_LdiHJ3nkgfOyBbxPlQ-37" value="" style="shape=partialRectangle;overflow=hidden;connectable=0;fillColor=none;top=0;left=0;bottom=0;right=0;align=left;spacingLeft=6;fontStyle=5;" vertex="1" parent="Q_LdiHJ3nkgfOyBbxPlQ-35">
          <mxGeometry x="30" width="110" height="30" as="geometry" />
        </mxCell>
        <mxCell id="Q_LdiHJ3nkgfOyBbxPlQ-38" value="" style="shape=partialRectangle;collapsible=0;dropTarget=0;pointerEvents=0;fillColor=none;points=[[0,0.5],[1,0.5]];portConstraint=eastwest;top=0;left=0;right=0;bottom=0;" vertex="1" parent="Q_LdiHJ3nkgfOyBbxPlQ-34">
          <mxGeometry y="60" width="140" height="30" as="geometry" />
        </mxCell>
        <mxCell id="Q_LdiHJ3nkgfOyBbxPlQ-39" value="" style="shape=partialRectangle;overflow=hidden;connectable=0;fillColor=none;top=0;left=0;bottom=0;right=0;" vertex="1" parent="Q_LdiHJ3nkgfOyBbxPlQ-38">
          <mxGeometry width="30" height="30" as="geometry" />
        </mxCell>
        <mxCell id="Q_LdiHJ3nkgfOyBbxPlQ-40" value="XXXXXXXXXXXX" style="shape=partialRectangle;overflow=hidden;connectable=0;fillColor=none;top=0;left=0;bottom=0;right=0;align=left;spacingLeft=6;" vertex="1" parent="Q_LdiHJ3nkgfOyBbxPlQ-38">
          <mxGeometry x="30" width="110" height="30" as="geometry" />
        </mxCell>
        <mxCell id="Q_LdiHJ3nkgfOyBbxPlQ-41" value="&lt;font style=&quot;font-size: 14px&quot;&gt;ATRIBUTO&lt;/font&gt;" style="text;html=1;strokeColor=none;fillColor=none;align=left;verticalAlign=middle;whiteSpace=wrap;rounded=0;fontSize=14;fontStyle=1" vertex="1" parent="1">
          <mxGeometry x="595" y="410" width="90" height="20" as="geometry" />
        </mxCell>
        <mxCell id="Q_LdiHJ3nkgfOyBbxPlQ-42" value="" style="endArrow=none;html=1;rounded=0;strokeWidth=2;" edge="1" parent="1">
          <mxGeometry relative="1" as="geometry">
            <mxPoint x="80" y="360" as="sourcePoint" />
            <mxPoint x="220" y="360" as="targetPoint" />
          </mxGeometry>
        </mxCell>
        <mxCell id="Q_LdiHJ3nkgfOyBbxPlQ-43" value="&lt;font style=&quot;font-size: 14px&quot;&gt;RELACIONAMENTO&lt;br&gt;&lt;/font&gt;" style="text;html=1;strokeColor=none;fillColor=none;align=left;verticalAlign=middle;whiteSpace=wrap;rounded=0;fontSize=14;fontStyle=1" vertex="1" parent="1">
          <mxGeometry x="230" y="349" width="150" height="20" as="geometry" />
        </mxCell>
        <mxCell id="Q_LdiHJ3nkgfOyBbxPlQ-48" value="CARDINALIDADE" style="text;html=1;strokeColor=none;fillColor=none;align=left;verticalAlign=middle;whiteSpace=wrap;rounded=0;fontSize=14;fontStyle=1" vertex="1" parent="1">
          <mxGeometry x="230" y="439" width="140" height="20" as="geometry" />
        </mxCell>
        <mxCell id="Q_LdiHJ3nkgfOyBbxPlQ-49" value="DR - SISTEMA ACADÊMICO" style="text;html=1;strokeColor=none;fillColor=none;align=left;verticalAlign=middle;whiteSpace=wrap;rounded=0;fontSize=24;" vertex="1" parent="1">
          <mxGeometry x="10" y="540" width="350" height="30" as="geometry" />
        </mxCell>
        <mxCell id="Q_LdiHJ3nkgfOyBbxPlQ-50" value="Faculdade" style="shape=table;startSize=30;container=1;collapsible=1;childLayout=tableLayout;fixedRows=1;rowLines=0;fontStyle=1;align=center;resizeLast=1;strokeWidth=2;" vertex="1" parent="1">
          <mxGeometry x="180" y="592" width="200" height="160" as="geometry" />
        </mxCell>
        <mxCell id="Q_LdiHJ3nkgfOyBbxPlQ-51" value="" style="shape=partialRectangle;collapsible=0;dropTarget=0;pointerEvents=0;fillColor=none;points=[[0,0.5],[1,0.5]];portConstraint=eastwest;top=0;left=0;right=0;bottom=1;" vertex="1" parent="Q_LdiHJ3nkgfOyBbxPlQ-50">
          <mxGeometry y="30" width="200" height="30" as="geometry" />
        </mxCell>
        <mxCell id="Q_LdiHJ3nkgfOyBbxPlQ-52" value="PK" style="shape=partialRectangle;overflow=hidden;connectable=0;fillColor=none;top=0;left=0;bottom=0;right=0;fontStyle=1;" vertex="1" parent="Q_LdiHJ3nkgfOyBbxPlQ-51">
          <mxGeometry width="30" height="30" as="geometry" />
        </mxCell>
        <mxCell id="Q_LdiHJ3nkgfOyBbxPlQ-53" value="cnpj: string" style="shape=partialRectangle;overflow=hidden;connectable=0;fillColor=none;top=0;left=0;bottom=0;right=0;align=left;spacingLeft=6;fontStyle=5;" vertex="1" parent="Q_LdiHJ3nkgfOyBbxPlQ-51">
          <mxGeometry x="30" width="170" height="30" as="geometry" />
        </mxCell>
        <mxCell id="Q_LdiHJ3nkgfOyBbxPlQ-54" value="" style="shape=partialRectangle;collapsible=0;dropTarget=0;pointerEvents=0;fillColor=none;points=[[0,0.5],[1,0.5]];portConstraint=eastwest;top=0;left=0;right=0;bottom=0;" vertex="1" parent="Q_LdiHJ3nkgfOyBbxPlQ-50">
          <mxGeometry y="60" width="200" height="30" as="geometry" />
        </mxCell>
        <mxCell id="Q_LdiHJ3nkgfOyBbxPlQ-55" value="" style="shape=partialRectangle;overflow=hidden;connectable=0;fillColor=none;top=0;left=0;bottom=0;right=0;" vertex="1" parent="Q_LdiHJ3nkgfOyBbxPlQ-54">
          <mxGeometry width="30" height="30" as="geometry" />
        </mxCell>
        <mxCell id="Q_LdiHJ3nkgfOyBbxPlQ-56" value="tipo_logradouro: caractere" style="shape=partialRectangle;overflow=hidden;connectable=0;fillColor=none;top=0;left=0;bottom=0;right=0;align=left;spacingLeft=6;" vertex="1" parent="Q_LdiHJ3nkgfOyBbxPlQ-54">
          <mxGeometry x="30" width="170" height="30" as="geometry" />
        </mxCell>
        <mxCell id="Q_LdiHJ3nkgfOyBbxPlQ-57" value="" style="shape=partialRectangle;collapsible=0;dropTarget=0;pointerEvents=0;fillColor=none;top=0;left=0;bottom=0;right=0;points=[[0,0.5],[1,0.5]];portConstraint=eastwest;rounded=1;strokeWidth=2;" vertex="1" parent="Q_LdiHJ3nkgfOyBbxPlQ-50">
          <mxGeometry y="90" width="200" height="30" as="geometry" />
        </mxCell>
        <mxCell id="Q_LdiHJ3nkgfOyBbxPlQ-58" value="" style="shape=partialRectangle;connectable=0;fillColor=none;top=0;left=0;bottom=0;right=0;editable=1;overflow=hidden;" vertex="1" parent="Q_LdiHJ3nkgfOyBbxPlQ-57">
          <mxGeometry width="30" height="30" as="geometry" />
        </mxCell>
        <mxCell id="Q_LdiHJ3nkgfOyBbxPlQ-59" value="nome_logradouro: string" style="shape=partialRectangle;connectable=0;fillColor=none;top=0;left=0;bottom=0;right=0;align=left;spacingLeft=6;overflow=hidden;" vertex="1" parent="Q_LdiHJ3nkgfOyBbxPlQ-57">
          <mxGeometry x="30" width="170" height="30" as="geometry" />
        </mxCell>
        <mxCell id="Q_LdiHJ3nkgfOyBbxPlQ-60" value="" style="shape=partialRectangle;collapsible=0;dropTarget=0;pointerEvents=0;fillColor=none;top=0;left=0;bottom=0;right=0;points=[[0,0.5],[1,0.5]];portConstraint=eastwest;rounded=1;strokeWidth=2;" vertex="1" parent="Q_LdiHJ3nkgfOyBbxPlQ-50">
          <mxGeometry y="120" width="200" height="30" as="geometry" />
        </mxCell>
        <mxCell id="Q_LdiHJ3nkgfOyBbxPlQ-61" value="" style="shape=partialRectangle;connectable=0;fillColor=none;top=0;left=0;bottom=0;right=0;editable=1;overflow=hidden;" vertex="1" parent="Q_LdiHJ3nkgfOyBbxPlQ-60">
          <mxGeometry width="30" height="30" as="geometry" />
        </mxCell>
        <mxCell id="Q_LdiHJ3nkgfOyBbxPlQ-62" value="numero_logradouro: inteiro" style="shape=partialRectangle;connectable=0;fillColor=none;top=0;left=0;bottom=0;right=0;align=left;spacingLeft=6;overflow=hidden;" vertex="1" parent="Q_LdiHJ3nkgfOyBbxPlQ-60">
          <mxGeometry x="30" width="170" height="30" as="geometry" />
        </mxCell>
        <mxCell id="Q_LdiHJ3nkgfOyBbxPlQ-63" style="edgeStyle=orthogonalEdgeStyle;rounded=0;jumpSize=6;orthogonalLoop=1;jettySize=auto;html=1;entryX=0.5;entryY=0;entryDx=0;entryDy=0;startArrow=none;startFill=0;endArrow=ERzeroToMany;endFill=1;startSize=6;endSize=6;sourcePerimeterSpacing=0;targetPerimeterSpacing=0;strokeWidth=2;" edge="1" parent="1" source="Q_LdiHJ3nkgfOyBbxPlQ-64" target="Q_LdiHJ3nkgfOyBbxPlQ-106">
          <mxGeometry relative="1" as="geometry" />
        </mxCell>
        <mxCell id="Q_LdiHJ3nkgfOyBbxPlQ-64" value="Curso" style="shape=table;startSize=30;container=1;collapsible=1;childLayout=tableLayout;fixedRows=1;rowLines=0;fontStyle=1;align=center;resizeLast=1;strokeWidth=2;" vertex="1" parent="1">
          <mxGeometry x="560" y="587" width="200" height="160" as="geometry" />
        </mxCell>
        <mxCell id="Q_LdiHJ3nkgfOyBbxPlQ-65" value="" style="shape=partialRectangle;collapsible=0;dropTarget=0;pointerEvents=0;fillColor=none;points=[[0,0.5],[1,0.5]];portConstraint=eastwest;top=0;left=0;right=0;bottom=1;" vertex="1" parent="Q_LdiHJ3nkgfOyBbxPlQ-64">
          <mxGeometry y="30" width="200" height="30" as="geometry" />
        </mxCell>
        <mxCell id="Q_LdiHJ3nkgfOyBbxPlQ-66" value="PK" style="shape=partialRectangle;overflow=hidden;connectable=0;fillColor=none;top=0;left=0;bottom=0;right=0;fontStyle=1;" vertex="1" parent="Q_LdiHJ3nkgfOyBbxPlQ-65">
          <mxGeometry width="30" height="30" as="geometry" />
        </mxCell>
        <mxCell id="Q_LdiHJ3nkgfOyBbxPlQ-67" value="cod_curso: inteiro" style="shape=partialRectangle;overflow=hidden;connectable=0;fillColor=none;top=0;left=0;bottom=0;right=0;align=left;spacingLeft=6;fontStyle=5;" vertex="1" parent="Q_LdiHJ3nkgfOyBbxPlQ-65">
          <mxGeometry x="30" width="170" height="30" as="geometry" />
        </mxCell>
        <mxCell id="Q_LdiHJ3nkgfOyBbxPlQ-68" value="" style="shape=partialRectangle;collapsible=0;dropTarget=0;pointerEvents=0;fillColor=none;points=[[0,0.5],[1,0.5]];portConstraint=eastwest;top=0;left=0;right=0;bottom=0;" vertex="1" parent="Q_LdiHJ3nkgfOyBbxPlQ-64">
          <mxGeometry y="60" width="200" height="30" as="geometry" />
        </mxCell>
        <mxCell id="Q_LdiHJ3nkgfOyBbxPlQ-69" value="" style="shape=partialRectangle;overflow=hidden;connectable=0;fillColor=none;top=0;left=0;bottom=0;right=0;" vertex="1" parent="Q_LdiHJ3nkgfOyBbxPlQ-68">
          <mxGeometry width="30" height="30" as="geometry" />
        </mxCell>
        <mxCell id="Q_LdiHJ3nkgfOyBbxPlQ-70" value="nome: string" style="shape=partialRectangle;overflow=hidden;connectable=0;fillColor=none;top=0;left=0;bottom=0;right=0;align=left;spacingLeft=6;" vertex="1" parent="Q_LdiHJ3nkgfOyBbxPlQ-68">
          <mxGeometry x="30" width="170" height="30" as="geometry" />
        </mxCell>
        <mxCell id="Q_LdiHJ3nkgfOyBbxPlQ-71" value="" style="shape=partialRectangle;collapsible=0;dropTarget=0;pointerEvents=0;fillColor=none;top=0;left=0;bottom=0;right=0;points=[[0,0.5],[1,0.5]];portConstraint=eastwest;rounded=1;strokeWidth=2;" vertex="1" parent="Q_LdiHJ3nkgfOyBbxPlQ-64">
          <mxGeometry y="90" width="200" height="30" as="geometry" />
        </mxCell>
        <mxCell id="Q_LdiHJ3nkgfOyBbxPlQ-72" value="FK" style="shape=partialRectangle;connectable=0;fillColor=none;top=0;left=0;bottom=0;right=0;editable=1;overflow=hidden;" vertex="1" parent="Q_LdiHJ3nkgfOyBbxPlQ-71">
          <mxGeometry width="30" height="30" as="geometry" />
        </mxCell>
        <mxCell id="Q_LdiHJ3nkgfOyBbxPlQ-73" value="cnpj: string" style="shape=partialRectangle;connectable=0;fillColor=none;top=0;left=0;bottom=0;right=0;align=left;spacingLeft=6;overflow=hidden;" vertex="1" parent="Q_LdiHJ3nkgfOyBbxPlQ-71">
          <mxGeometry x="30" width="170" height="30" as="geometry" />
        </mxCell>
        <mxCell id="Q_LdiHJ3nkgfOyBbxPlQ-74" value="" style="shape=partialRectangle;collapsible=0;dropTarget=0;pointerEvents=0;fillColor=none;top=0;left=0;bottom=0;right=0;points=[[0,0.5],[1,0.5]];portConstraint=eastwest;rounded=1;strokeWidth=2;" vertex="1" parent="Q_LdiHJ3nkgfOyBbxPlQ-64">
          <mxGeometry y="120" width="200" height="30" as="geometry" />
        </mxCell>
        <mxCell id="Q_LdiHJ3nkgfOyBbxPlQ-75" value="FK" style="shape=partialRectangle;connectable=0;fillColor=none;top=0;left=0;bottom=0;right=0;editable=1;overflow=hidden;" vertex="1" parent="Q_LdiHJ3nkgfOyBbxPlQ-74">
          <mxGeometry width="30" height="30" as="geometry" />
        </mxCell>
        <mxCell id="Q_LdiHJ3nkgfOyBbxPlQ-76" value="matricula: inteiro" style="shape=partialRectangle;connectable=0;fillColor=none;top=0;left=0;bottom=0;right=0;align=left;spacingLeft=6;overflow=hidden;" vertex="1" parent="Q_LdiHJ3nkgfOyBbxPlQ-74">
          <mxGeometry x="30" width="170" height="30" as="geometry" />
        </mxCell>
        <mxCell id="Q_LdiHJ3nkgfOyBbxPlQ-77" value="" style="rounded=0;orthogonalLoop=1;jettySize=auto;entryX=0;entryY=0.5;entryDx=0;entryDy=0;endArrow=ERzeroToMany;endFill=1;exitX=1;exitY=0.5;exitDx=0;exitDy=0;strokeWidth=2;targetPerimeterSpacing=0;sourcePerimeterSpacing=0;endSize=6;jumpSize=6;html=1;spacingRight=0;spacingBottom=0;" edge="1" parent="1" source="Q_LdiHJ3nkgfOyBbxPlQ-54" target="Q_LdiHJ3nkgfOyBbxPlQ-64">
          <mxGeometry relative="1" as="geometry" />
        </mxCell>
        <mxCell id="Q_LdiHJ3nkgfOyBbxPlQ-78" style="edgeStyle=none;rounded=0;jumpSize=6;orthogonalLoop=1;jettySize=auto;html=1;entryX=0.5;entryY=1;entryDx=0;entryDy=0;endArrow=ERzeroToMany;endFill=1;endSize=6;sourcePerimeterSpacing=0;targetPerimeterSpacing=0;strokeWidth=2;startArrow=ERzeroToMany;startFill=1;startSize=6;" edge="1" parent="1" source="Q_LdiHJ3nkgfOyBbxPlQ-79" target="Q_LdiHJ3nkgfOyBbxPlQ-50">
          <mxGeometry relative="1" as="geometry" />
        </mxCell>
        <mxCell id="Q_LdiHJ3nkgfOyBbxPlQ-79" value="Pessoa" style="shape=table;startSize=30;container=1;collapsible=1;childLayout=tableLayout;fixedRows=1;rowLines=0;fontStyle=1;align=center;resizeLast=1;strokeWidth=2;" vertex="1" parent="1">
          <mxGeometry x="180" y="802" width="200" height="90" as="geometry" />
        </mxCell>
        <mxCell id="Q_LdiHJ3nkgfOyBbxPlQ-80" value="" style="shape=partialRectangle;collapsible=0;dropTarget=0;pointerEvents=0;fillColor=none;points=[[0,0.5],[1,0.5]];portConstraint=eastwest;top=0;left=0;right=0;bottom=1;" vertex="1" parent="Q_LdiHJ3nkgfOyBbxPlQ-79">
          <mxGeometry y="30" width="200" height="30" as="geometry" />
        </mxCell>
        <mxCell id="Q_LdiHJ3nkgfOyBbxPlQ-81" value="PK" style="shape=partialRectangle;overflow=hidden;connectable=0;fillColor=none;top=0;left=0;bottom=0;right=0;fontStyle=1;" vertex="1" parent="Q_LdiHJ3nkgfOyBbxPlQ-80">
          <mxGeometry width="30" height="30" as="geometry" />
        </mxCell>
        <mxCell id="Q_LdiHJ3nkgfOyBbxPlQ-82" value="matricula: inteiro" style="shape=partialRectangle;overflow=hidden;connectable=0;fillColor=none;top=0;left=0;bottom=0;right=0;align=left;spacingLeft=6;fontStyle=5;" vertex="1" parent="Q_LdiHJ3nkgfOyBbxPlQ-80">
          <mxGeometry x="30" width="170" height="30" as="geometry" />
        </mxCell>
        <mxCell id="Q_LdiHJ3nkgfOyBbxPlQ-83" value="" style="shape=partialRectangle;collapsible=0;dropTarget=0;pointerEvents=0;fillColor=none;points=[[0,0.5],[1,0.5]];portConstraint=eastwest;top=0;left=0;right=0;bottom=0;" vertex="1" parent="Q_LdiHJ3nkgfOyBbxPlQ-79">
          <mxGeometry y="60" width="200" height="30" as="geometry" />
        </mxCell>
        <mxCell id="Q_LdiHJ3nkgfOyBbxPlQ-84" value="" style="shape=partialRectangle;overflow=hidden;connectable=0;fillColor=none;top=0;left=0;bottom=0;right=0;" vertex="1" parent="Q_LdiHJ3nkgfOyBbxPlQ-83">
          <mxGeometry width="30" height="30" as="geometry" />
        </mxCell>
        <mxCell id="Q_LdiHJ3nkgfOyBbxPlQ-85" value="nome: string" style="shape=partialRectangle;overflow=hidden;connectable=0;fillColor=none;top=0;left=0;bottom=0;right=0;align=left;spacingLeft=6;" vertex="1" parent="Q_LdiHJ3nkgfOyBbxPlQ-83">
          <mxGeometry x="30" width="170" height="30" as="geometry" />
        </mxCell>
        <mxCell id="Q_LdiHJ3nkgfOyBbxPlQ-86" style="edgeStyle=orthogonalEdgeStyle;rounded=0;jumpSize=6;orthogonalLoop=1;jettySize=auto;html=1;entryX=0.25;entryY=1;entryDx=0;entryDy=0;startArrow=ERmandOne;startFill=0;endArrow=ERmandOne;endFill=0;startSize=6;endSize=6;sourcePerimeterSpacing=0;targetPerimeterSpacing=0;strokeWidth=2;" edge="1" parent="1" source="Q_LdiHJ3nkgfOyBbxPlQ-87" target="Q_LdiHJ3nkgfOyBbxPlQ-79">
          <mxGeometry relative="1" as="geometry" />
        </mxCell>
        <mxCell id="Q_LdiHJ3nkgfOyBbxPlQ-87" value="Aluno" style="shape=table;startSize=30;container=1;collapsible=1;childLayout=tableLayout;fixedRows=1;rowLines=0;fontStyle=1;align=center;resizeLast=1;strokeWidth=2;" vertex="1" parent="1">
          <mxGeometry x="70" y="952" width="200" height="120" as="geometry" />
        </mxCell>
        <mxCell id="Q_LdiHJ3nkgfOyBbxPlQ-88" value="" style="shape=partialRectangle;collapsible=0;dropTarget=0;pointerEvents=0;fillColor=none;points=[[0,0.5],[1,0.5]];portConstraint=eastwest;top=0;left=0;right=0;bottom=1;" vertex="1" parent="Q_LdiHJ3nkgfOyBbxPlQ-87">
          <mxGeometry y="30" width="200" height="30" as="geometry" />
        </mxCell>
        <mxCell id="Q_LdiHJ3nkgfOyBbxPlQ-89" value="PK,FK" style="shape=partialRectangle;overflow=hidden;connectable=0;fillColor=none;top=0;left=0;bottom=0;right=0;fontStyle=1;" vertex="1" parent="Q_LdiHJ3nkgfOyBbxPlQ-88">
          <mxGeometry width="40" height="30" as="geometry" />
        </mxCell>
        <mxCell id="Q_LdiHJ3nkgfOyBbxPlQ-90" value="matricula: inteiro" style="shape=partialRectangle;overflow=hidden;connectable=0;fillColor=none;top=0;left=0;bottom=0;right=0;align=left;spacingLeft=6;fontStyle=5;" vertex="1" parent="Q_LdiHJ3nkgfOyBbxPlQ-88">
          <mxGeometry x="40" width="160" height="30" as="geometry" />
        </mxCell>
        <mxCell id="Q_LdiHJ3nkgfOyBbxPlQ-91" value="" style="shape=partialRectangle;collapsible=0;dropTarget=0;pointerEvents=0;fillColor=none;points=[[0,0.5],[1,0.5]];portConstraint=eastwest;top=0;left=0;right=0;bottom=0;" vertex="1" parent="Q_LdiHJ3nkgfOyBbxPlQ-87">
          <mxGeometry y="60" width="200" height="30" as="geometry" />
        </mxCell>
        <mxCell id="Q_LdiHJ3nkgfOyBbxPlQ-92" value="" style="shape=partialRectangle;overflow=hidden;connectable=0;fillColor=none;top=0;left=0;bottom=0;right=0;" vertex="1" parent="Q_LdiHJ3nkgfOyBbxPlQ-91">
          <mxGeometry width="40" height="30" as="geometry" />
        </mxCell>
        <mxCell id="Q_LdiHJ3nkgfOyBbxPlQ-93" value="data_nasc: data" style="shape=partialRectangle;overflow=hidden;connectable=0;fillColor=none;top=0;left=0;bottom=0;right=0;align=left;spacingLeft=6;" vertex="1" parent="Q_LdiHJ3nkgfOyBbxPlQ-91">
          <mxGeometry x="40" width="160" height="30" as="geometry" />
        </mxCell>
        <mxCell id="Q_LdiHJ3nkgfOyBbxPlQ-94" value="" style="shape=partialRectangle;collapsible=0;dropTarget=0;pointerEvents=0;fillColor=none;points=[[0,0.5],[1,0.5]];portConstraint=eastwest;top=0;left=0;right=0;bottom=0;" vertex="1" parent="Q_LdiHJ3nkgfOyBbxPlQ-87">
          <mxGeometry y="90" width="200" height="30" as="geometry" />
        </mxCell>
        <mxCell id="Q_LdiHJ3nkgfOyBbxPlQ-95" value="" style="shape=partialRectangle;overflow=hidden;connectable=0;fillColor=none;top=0;left=0;bottom=0;right=0;" vertex="1" parent="Q_LdiHJ3nkgfOyBbxPlQ-94">
          <mxGeometry width="40" height="30" as="geometry" />
        </mxCell>
        <mxCell id="Q_LdiHJ3nkgfOyBbxPlQ-96" value="telefones: string" style="shape=partialRectangle;overflow=hidden;connectable=0;fillColor=none;top=0;left=0;bottom=0;right=0;align=left;spacingLeft=6;" vertex="1" parent="Q_LdiHJ3nkgfOyBbxPlQ-94">
          <mxGeometry x="40" width="160" height="30" as="geometry" />
        </mxCell>
        <mxCell id="Q_LdiHJ3nkgfOyBbxPlQ-97" style="edgeStyle=orthogonalEdgeStyle;rounded=0;jumpSize=6;orthogonalLoop=1;jettySize=auto;html=1;entryX=0.75;entryY=1;entryDx=0;entryDy=0;startArrow=ERmandOne;startFill=0;endArrow=ERmandOne;endFill=0;startSize=6;endSize=6;sourcePerimeterSpacing=0;targetPerimeterSpacing=0;strokeWidth=2;" edge="1" parent="1" source="Q_LdiHJ3nkgfOyBbxPlQ-99" target="Q_LdiHJ3nkgfOyBbxPlQ-79">
          <mxGeometry relative="1" as="geometry" />
        </mxCell>
        <mxCell id="Q_LdiHJ3nkgfOyBbxPlQ-98" style="edgeStyle=orthogonalEdgeStyle;rounded=0;jumpSize=6;orthogonalLoop=1;jettySize=auto;html=1;entryX=0;entryY=0.5;entryDx=0;entryDy=0;startArrow=none;startFill=0;endArrow=ERzeroToOne;endFill=1;startSize=6;endSize=6;sourcePerimeterSpacing=0;targetPerimeterSpacing=0;strokeWidth=2;exitX=0.75;exitY=0;exitDx=0;exitDy=0;" edge="1" parent="1" source="Q_LdiHJ3nkgfOyBbxPlQ-99" target="Q_LdiHJ3nkgfOyBbxPlQ-74">
          <mxGeometry relative="1" as="geometry">
            <Array as="points">
              <mxPoint x="460" y="722" />
            </Array>
          </mxGeometry>
        </mxCell>
        <mxCell id="Q_LdiHJ3nkgfOyBbxPlQ-99" value="Professor" style="shape=table;startSize=30;container=1;collapsible=1;childLayout=tableLayout;fixedRows=1;rowLines=0;fontStyle=1;align=center;resizeLast=1;strokeWidth=2;" vertex="1" parent="1">
          <mxGeometry x="310" y="952" width="200" height="90" as="geometry" />
        </mxCell>
        <mxCell id="Q_LdiHJ3nkgfOyBbxPlQ-100" value="" style="shape=partialRectangle;collapsible=0;dropTarget=0;pointerEvents=0;fillColor=none;points=[[0,0.5],[1,0.5]];portConstraint=eastwest;top=0;left=0;right=0;bottom=1;" vertex="1" parent="Q_LdiHJ3nkgfOyBbxPlQ-99">
          <mxGeometry y="30" width="200" height="30" as="geometry" />
        </mxCell>
        <mxCell id="Q_LdiHJ3nkgfOyBbxPlQ-101" value="PK,FK" style="shape=partialRectangle;overflow=hidden;connectable=0;fillColor=none;top=0;left=0;bottom=0;right=0;fontStyle=1;" vertex="1" parent="Q_LdiHJ3nkgfOyBbxPlQ-100">
          <mxGeometry width="40" height="30" as="geometry" />
        </mxCell>
        <mxCell id="Q_LdiHJ3nkgfOyBbxPlQ-102" value="matricula: inteiro" style="shape=partialRectangle;overflow=hidden;connectable=0;fillColor=none;top=0;left=0;bottom=0;right=0;align=left;spacingLeft=6;fontStyle=5;" vertex="1" parent="Q_LdiHJ3nkgfOyBbxPlQ-100">
          <mxGeometry x="40" width="160" height="30" as="geometry" />
        </mxCell>
        <mxCell id="Q_LdiHJ3nkgfOyBbxPlQ-103" value="" style="shape=partialRectangle;collapsible=0;dropTarget=0;pointerEvents=0;fillColor=none;points=[[0,0.5],[1,0.5]];portConstraint=eastwest;top=0;left=0;right=0;bottom=0;" vertex="1" parent="Q_LdiHJ3nkgfOyBbxPlQ-99">
          <mxGeometry y="60" width="200" height="30" as="geometry" />
        </mxCell>
        <mxCell id="Q_LdiHJ3nkgfOyBbxPlQ-104" value="" style="shape=partialRectangle;overflow=hidden;connectable=0;fillColor=none;top=0;left=0;bottom=0;right=0;" vertex="1" parent="Q_LdiHJ3nkgfOyBbxPlQ-103">
          <mxGeometry width="40" height="30" as="geometry" />
        </mxCell>
        <mxCell id="Q_LdiHJ3nkgfOyBbxPlQ-105" value="telefones: string" style="shape=partialRectangle;overflow=hidden;connectable=0;fillColor=none;top=0;left=0;bottom=0;right=0;align=left;spacingLeft=6;" vertex="1" parent="Q_LdiHJ3nkgfOyBbxPlQ-103">
          <mxGeometry x="40" width="160" height="30" as="geometry" />
        </mxCell>
        <mxCell id="Q_LdiHJ3nkgfOyBbxPlQ-106" value="Curso" style="shape=table;startSize=30;container=1;collapsible=1;childLayout=tableLayout;fixedRows=1;rowLines=0;fontStyle=1;align=center;resizeLast=1;strokeWidth=2;" vertex="1" parent="1">
          <mxGeometry x="560" y="802" width="200" height="160" as="geometry" />
        </mxCell>
        <mxCell id="Q_LdiHJ3nkgfOyBbxPlQ-107" value="" style="shape=partialRectangle;collapsible=0;dropTarget=0;pointerEvents=0;fillColor=none;points=[[0,0.5],[1,0.5]];portConstraint=eastwest;top=0;left=0;right=0;bottom=1;" vertex="1" parent="Q_LdiHJ3nkgfOyBbxPlQ-106">
          <mxGeometry y="30" width="200" height="30" as="geometry" />
        </mxCell>
        <mxCell id="Q_LdiHJ3nkgfOyBbxPlQ-108" value="PK" style="shape=partialRectangle;overflow=hidden;connectable=0;fillColor=none;top=0;left=0;bottom=0;right=0;fontStyle=1;" vertex="1" parent="Q_LdiHJ3nkgfOyBbxPlQ-107">
          <mxGeometry width="30" height="30" as="geometry" />
        </mxCell>
        <mxCell id="Q_LdiHJ3nkgfOyBbxPlQ-109" value="cod_curso: inteiro" style="shape=partialRectangle;overflow=hidden;connectable=0;fillColor=none;top=0;left=0;bottom=0;right=0;align=left;spacingLeft=6;fontStyle=5;" vertex="1" parent="Q_LdiHJ3nkgfOyBbxPlQ-107">
          <mxGeometry x="30" width="170" height="30" as="geometry" />
        </mxCell>
        <mxCell id="Q_LdiHJ3nkgfOyBbxPlQ-110" value="" style="shape=partialRectangle;collapsible=0;dropTarget=0;pointerEvents=0;fillColor=none;points=[[0,0.5],[1,0.5]];portConstraint=eastwest;top=0;left=0;right=0;bottom=0;" vertex="1" parent="Q_LdiHJ3nkgfOyBbxPlQ-106">
          <mxGeometry y="60" width="200" height="30" as="geometry" />
        </mxCell>
        <mxCell id="Q_LdiHJ3nkgfOyBbxPlQ-111" value="" style="shape=partialRectangle;overflow=hidden;connectable=0;fillColor=none;top=0;left=0;bottom=0;right=0;" vertex="1" parent="Q_LdiHJ3nkgfOyBbxPlQ-110">
          <mxGeometry width="30" height="30" as="geometry" />
        </mxCell>
        <mxCell id="Q_LdiHJ3nkgfOyBbxPlQ-112" value="nome: string" style="shape=partialRectangle;overflow=hidden;connectable=0;fillColor=none;top=0;left=0;bottom=0;right=0;align=left;spacingLeft=6;" vertex="1" parent="Q_LdiHJ3nkgfOyBbxPlQ-110">
          <mxGeometry x="30" width="170" height="30" as="geometry" />
        </mxCell>
        <mxCell id="Q_LdiHJ3nkgfOyBbxPlQ-113" value="" style="shape=partialRectangle;collapsible=0;dropTarget=0;pointerEvents=0;fillColor=none;top=0;left=0;bottom=0;right=0;points=[[0,0.5],[1,0.5]];portConstraint=eastwest;rounded=1;strokeWidth=2;" vertex="1" parent="Q_LdiHJ3nkgfOyBbxPlQ-106">
          <mxGeometry y="90" width="200" height="30" as="geometry" />
        </mxCell>
        <mxCell id="Q_LdiHJ3nkgfOyBbxPlQ-114" value="FK" style="shape=partialRectangle;connectable=0;fillColor=none;top=0;left=0;bottom=0;right=0;editable=1;overflow=hidden;" vertex="1" parent="Q_LdiHJ3nkgfOyBbxPlQ-113">
          <mxGeometry width="30" height="30" as="geometry" />
        </mxCell>
        <mxCell id="Q_LdiHJ3nkgfOyBbxPlQ-115" value="cnpj: string" style="shape=partialRectangle;connectable=0;fillColor=none;top=0;left=0;bottom=0;right=0;align=left;spacingLeft=6;overflow=hidden;" vertex="1" parent="Q_LdiHJ3nkgfOyBbxPlQ-113">
          <mxGeometry x="30" width="170" height="30" as="geometry" />
        </mxCell>
        <mxCell id="Q_LdiHJ3nkgfOyBbxPlQ-116" value="" style="shape=partialRectangle;collapsible=0;dropTarget=0;pointerEvents=0;fillColor=none;top=0;left=0;bottom=0;right=0;points=[[0,0.5],[1,0.5]];portConstraint=eastwest;rounded=1;strokeWidth=2;" vertex="1" parent="Q_LdiHJ3nkgfOyBbxPlQ-106">
          <mxGeometry y="120" width="200" height="30" as="geometry" />
        </mxCell>
        <mxCell id="Q_LdiHJ3nkgfOyBbxPlQ-117" value="FK" style="shape=partialRectangle;connectable=0;fillColor=none;top=0;left=0;bottom=0;right=0;editable=1;overflow=hidden;" vertex="1" parent="Q_LdiHJ3nkgfOyBbxPlQ-116">
          <mxGeometry width="30" height="30" as="geometry" />
        </mxCell>
        <mxCell id="Q_LdiHJ3nkgfOyBbxPlQ-118" value="matricula: inteiro" style="shape=partialRectangle;connectable=0;fillColor=none;top=0;left=0;bottom=0;right=0;align=left;spacingLeft=6;overflow=hidden;" vertex="1" parent="Q_LdiHJ3nkgfOyBbxPlQ-116">
          <mxGeometry x="30" width="170" height="30" as="geometry" />
        </mxCell>
        <mxCell id="Q_LdiHJ3nkgfOyBbxPlQ-119" style="edgeStyle=orthogonalEdgeStyle;rounded=0;jumpSize=6;orthogonalLoop=1;jettySize=auto;html=1;entryX=0.5;entryY=1;entryDx=0;entryDy=0;startArrow=none;startFill=0;endArrow=ERzeroToMany;endFill=1;startSize=6;endSize=6;sourcePerimeterSpacing=0;targetPerimeterSpacing=0;strokeWidth=2;" edge="1" parent="1" source="Q_LdiHJ3nkgfOyBbxPlQ-100" target="Q_LdiHJ3nkgfOyBbxPlQ-106">
          <mxGeometry relative="1" as="geometry" />
        </mxCell>
        <mxCell id="Q_LdiHJ3nkgfOyBbxPlQ-120" value="" style="endArrow=ERzeroToOne;html=1;rounded=0;strokeWidth=2;endFill=1;" edge="1" parent="1">
          <mxGeometry relative="1" as="geometry">
            <mxPoint x="80" y="417.5" as="sourcePoint" />
            <mxPoint x="220" y="417.5" as="targetPoint" />
          </mxGeometry>
        </mxCell>
        <mxCell id="Q_LdiHJ3nkgfOyBbxPlQ-121" value="" style="endArrow=ERmandOne;html=1;rounded=0;strokeWidth=2;endFill=0;" edge="1" parent="1">
          <mxGeometry relative="1" as="geometry">
            <mxPoint x="80" y="437.5" as="sourcePoint" />
            <mxPoint x="220" y="437.5" as="targetPoint" />
          </mxGeometry>
        </mxCell>
        <mxCell id="Q_LdiHJ3nkgfOyBbxPlQ-122" value="" style="endArrow=ERmany;html=1;rounded=0;strokeWidth=2;endFill=0;" edge="1" parent="1">
          <mxGeometry relative="1" as="geometry">
            <mxPoint x="80" y="457.5" as="sourcePoint" />
            <mxPoint x="220" y="457.5" as="targetPoint" />
          </mxGeometry>
        </mxCell>
        <mxCell id="Q_LdiHJ3nkgfOyBbxPlQ-123" value="" style="endArrow=ERzeroToMany;html=1;rounded=0;strokeWidth=2;endFill=1;" edge="1" parent="1">
          <mxGeometry relative="1" as="geometry">
            <mxPoint x="80" y="477.5" as="sourcePoint" />
            <mxPoint x="220" y="477.5" as="targetPoint" />
          </mxGeometry>
        </mxCell>
        <mxCell id="Q_LdiHJ3nkgfOyBbxPlQ-124" value="" style="endArrow=ERoneToMany;html=1;rounded=0;strokeWidth=2;endFill=0;" edge="1" parent="1">
          <mxGeometry relative="1" as="geometry">
            <mxPoint x="80" y="497.5" as="sourcePoint" />
            <mxPoint x="220" y="497.5" as="targetPoint" />
          </mxGeometry>
        </mxCell>
        <mxCell id="Q_LdiHJ3nkgfOyBbxPlQ-125" value="" style="endArrow=ERone;html=1;rounded=0;strokeWidth=2;endFill=0;" edge="1" parent="1">
          <mxGeometry relative="1" as="geometry">
            <mxPoint x="80" y="399.5" as="sourcePoint" />
            <mxPoint x="220" y="399.5" as="targetPoint" />
          </mxGeometry>
        </mxCell>
      </root>
    </mxGraphModel>
  </diagram>
</mxfile>
